<svg id="visual" viewBox="0 0 900 600" width="900" height="600" xmlns="http://www.w3.org/2000/svg" xmlns:xlink="http://www.w3.org/1999/xlink" version="1.1"><path d="M0 133L25 123C50 113 100 93 150 82C200 71 250 69 300 72C350 75 400 83 450 97C500 111 550 131 600 136C650 141 700 131 750 118C800 105 850 89 875 81L900 73L900 0L875 0C850 0 800 0 750 0C700 0 650 0 600 0C550 0 500 0 450 0C400 0 350 0 300 0C250 0 200 0 150 0C100 0 50 0 25 0L0 0Z" fill="#0066ff"></path><path d="M0 163L25 165C50 167 100 171 150 164C200 157 250 139 300 137C350 135 400 149 450 160C500 171 550 179 600 181C650 183 700 179 750 161C800 143 850 111 875 95L900 79L900 71L875 79C850 87 800 103 750 116C700 129 650 139 600 134C550 129 500 109 450 95C400 81 350 73 300 70C250 67 200 69 150 80C100 91 50 111 25 121L0 131Z" fill="#0c4ede"></path><path d="M0 235L25 252C50 269 100 303 150 298C200 293 250 249 300 224C350 199 400 193 450 199C500 205 550 223 600 248C650 273 700 305 750 288C800 271 850 205 875 172L900 139L900 77L875 93C850 109 800 141 750 159C700 177 650 181 600 179C550 177 500 169 450 158C400 147 350 133 300 135C250 137 200 155 150 162C100 169 50 165 25 163L0 161Z" fill="#0a37bd"></path><path d="M0 397L25 402C50 407 100 417 150 415C200 413 250 399 300 383C350 367 400 349 450 360C500 371 550 411 600 415C650 419 700 387 750 370C800 353 850 351 875 350L900 349L900 137L875 170C850 203 800 269 750 286C700 303 650 271 600 246C550 221 500 203 450 197C400 191 350 197 300 222C250 247 200 291 150 296C100 301 50 267 25 250L0 233Z" fill="#02209e"></path><path d="M0 457L25 456C50 455 100 453 150 451C200 449 250 447 300 431C350 415 400 385 450 389C500 393 550 431 600 441C650 451 700 433 750 415C800 397 850 379 875 370L900 361L900 347L875 348C850 349 800 351 750 368C700 385 650 417 600 413C550 409 500 369 450 358C400 347 350 365 300 381C250 397 200 411 150 413C100 415 50 405 25 400L0 395Z" fill="#001b98"></path><path d="M0 517L25 508C50 499 100 481 150 471C200 461 250 459 300 443C350 427 400 397 450 407C500 417 550 467 600 485C650 503 700 489 750 471C800 453 850 431 875 420L900 409L900 359L875 368C850 377 800 395 750 413C700 431 650 449 600 439C550 429 500 391 450 387C400 383 350 413 300 429C250 445 200 447 150 449C100 451 50 453 25 454L0 455Z" fill="#02209e"></path><path d="M0 571L25 561C50 551 100 531 150 519C200 507 250 503 300 492C350 481 400 463 450 468C500 473 550 501 600 514C650 527 700 525 750 517C800 509 850 495 875 488L900 481L900 407L875 418C850 429 800 451 750 469C700 487 650 501 600 483C550 465 500 415 450 405C400 395 350 425 300 441C250 457 200 459 150 469C100 479 50 497 25 506L0 515Z" fill="#0a37bd"></path><path d="M0 583L25 581C50 579 100 575 150 571C200 567 250 563 300 559C350 555 400 551 450 555C500 559 550 571 600 574C650 577 700 571 750 566C800 561 850 557 875 555L900 553L900 479L875 486C850 493 800 507 750 515C700 523 650 525 600 512C550 499 500 471 450 466C400 461 350 479 300 490C250 501 200 505 150 517C100 529 50 549 25 559L0 569Z" fill="#0c4ede"></path><path d="M0 601L25 601C50 601 100 601 150 601C200 601 250 601 300 601C350 601 400 601 450 601C500 601 550 601 600 601C650 601 700 601 750 601C800 601 850 601 875 601L900 601L900 551L875 553C850 555 800 559 750 564C700 569 650 575 600 572C550 569 500 557 450 553C400 549 350 553 300 557C250 561 200 565 150 569C100 573 50 577 25 579L0 581Z" fill="#0066ff"></path></svg>